# xmcd
#
# Track frame offsets:
# 150
# 15154
# 29142
# 45918
# 61052
# 79073
# 94701
# 112723
# 128223
# 144090
# 158969
# 179678
# 200694
# 221621
# 236896
# 254819
# 267622
# 282293
# 298641
# 315692
#
# Disc length: 4439 seconds
#
#
# Revision: 0
# Processed by: cddbd v1.5.1PL2 Copyright (c) Steve Scherf et al.
# Submitted via: FreeRIP 2.944 
#
DISCID=27115514
DTITLE=Various Artist - Northern Soul at it's Best - Vol 1
DYEAR=2000
DGENRE=Soul
TTITLE0=Linda Griner - Unchained
TTITLE1=Carol Jiani - Make sure you have someone who loves you
TTITLE2=Edwin Starr - There you go
TTITLE3=Jake Jacas - Magic's in the Air
TTITLE4=Barbara Randolph - Picture me gone
TTITLE5=J J Barnes - Sweet Cherry
TTITLE6=Hattie Littles - The right direction
TTITLE7=Sammy Ward - Sister Lee
TTITLE8=Merv Johnson - Something's burning in my heart
TTITLE9=Three Onces of Love - Evil One
TTITLE10=Kim Weston - You hit me where it hurt me
TTITLE11=L J Johnson - Gambling on your love
TTITLE12=Miquel Brown - Sunny Day
TTITLE13=The Andantes - Girls are out to get to you
TTITLE14=Frances Nero - Keep on loving me
TTITLE15=Earl Van Dyke - Six by six
TTITLE16=Barbara Penington - I can't keep my heart still
TTITLE17=Pat Lewis - Darkest Days
TTITLE18=Doris Jones - He's so irreplaceable
TTITLE19=The Elgins - Look what you've done to me heart
EXTD=
EXTT0=
EXTT1=
EXTT2=
EXTT3=
EXTT4=
EXTT5=
EXTT6=
EXTT7=
EXTT8=
EXTT9=
EXTT10=
EXTT11=
EXTT12=
EXTT13=
EXTT14=
EXTT15=
EXTT16=
EXTT17=
EXTT18=
EXTT19=
PLAYORDER=
